<?xml version="1.0" encoding="UTF-8"?>
<svg width="555" height="130" xmlns="http://www.w3.org/2000/svg" viewBox="0 0"><path d="M130.79 113.266v-75.531L65.38 0 0 37.734v75.53L65.38 151z" fill="#07A689"/><path d="M130.665 113.266 65.38 151 0.124 113.266l65.255 -37.297z" fill="#1D1D1B"/><path d="M109.673 64.536 80.092 37.422H50.792L21.271 64.536h25.428l-7.904 45.855 4.592 0.781 7.904 -46.636h28.456l7.842 46.636 4.622 -0.781 -7.717 -45.855zm-25.926 -4.654 -2.53 -15.057 16.399 15.054zm-50.539 0 16.708 -15.277 -2.592 15.277zm18.741 0 3.124 -17.713h20.929l2.967 17.713z" fill="white"/><path d="M26.114 66.129a3.905 3.905 0 1 1 0 -7.81 3.905 3.905 0 0 1 0 7.81" fill="#07A689"/><path d="M26.114 59.882a2.374 2.374 0 0 1 0 4.716 2.374 2.374 0 0 1 0 -4.716m0 -3.125a5.496 5.496 0 1 0 5.466 5.468 5.466 5.466 0 0 0 -5.466 -5.466" fill="white"/><path d="M104.676 66.129a3.905 3.905 0 1 1 0.312 -7.802 3.905 3.905 0 0 1 -0.312 7.802" fill="#07A689"/><path d="M104.676 59.882a2.374 2.374 0 1 1 0.062 4.746 2.374 2.374 0 0 1 -0.062 -4.746m0 -3.125a5.496 5.496 0 1 0 0 10.996 5.496 5.496 0 0 0 0 -10.994" fill="white"/><path d="M65.379 66.191a3.905 3.905 0 1 0 0 -7.809 3.905 3.905 0 0 0 0 7.809" fill="#07A689"/><path d="M65.38 59.882a2.374 2.374 0 1 1 0.06 4.746 2.374 2.374 0 0 1 -0.06 -4.746m0 -3.125a5.496 5.496 0 1 0 0 10.996 5.496 5.496 0 0 0 0 -10.994" fill="white"/><path d="M41.108 114.703a3.905 3.905 0 1 0 0 -7.81 3.905 3.905 0 0 0 0 7.81" fill="white"/><path d="M41.108 108.456a2.342 2.342 0 1 1 0 4.684 2.342 2.342 0 0 1 0 -4.684m0 -3.125a5.466 5.466 0 1 0 0 10.935 5.466 5.466 0 0 0 0 -10.934" fill="white"/><path d="M89.901 114.703a3.905 3.905 0 1 0 0 -7.81 3.905 3.905 0 0 0 0 7.81" fill="white"/><path d="M89.995 108.456a2.342 2.342 0 1 1 0 4.684 2.342 2.342 0 0 1 0 -4.684m0 -3.125a5.466 5.466 0 1 0 0 10.935 5.466 5.466 0 0 0 0 -10.934" fill="white"/><text x="132" y="105" font-family="Arial" font-size="100" font-weight="bold" fill="#000000">Grid</text><text x="330" y="105" font-family="Arial" font-size="100" fill="#07A689">Suite</text></svg>
 
