<?xml version="1.0" encoding="UTF-8"?>
<svg width="700" height="195.495" xmlns="http://www.w3.org/2000/svg" viewBox="0 0"><path d="M164.96 142.858V47.594L82.461 0 0 47.592v95.263L82.461 190.45z" fill="#07A689"/><path d="M164.803 142.858 82.461 190.45 0.156 142.858l82.304 -47.041z" fill="#1D1D1B"/><path d="M138.326 81.397 101.017 47.199h-36.955L26.828 81.397h32.071l-9.969 57.835 5.792 0.985 9.969 -58.82h35.89l9.891 58.82 5.83 -0.985 -9.733 -57.835zm-32.699 -5.87 -3.191 -18.991 20.683 18.987zm-63.743 0 21.073 -19.268 -3.269 19.268zm23.637 0 3.94 -22.341h26.397l3.742 22.341z" fill="white"/><path d="M32.937 83.406a4.925 4.925 0 1 1 0 -9.85 4.925 4.925 0 0 1 0 9.85" fill="#07A689"/><path d="M32.937 75.527a2.994 2.994 0 0 1 0 5.948 2.994 2.994 0 0 1 0 -5.948m0 -3.941a6.932 6.932 0 1 0 6.894 6.897 6.894 6.894 0 0 0 -6.894 -6.894" fill="white"/><path d="M132.024 83.406a4.925 4.925 0 1 1 0.394 -9.84 4.925 4.925 0 0 1 -0.394 9.84" fill="#07A689"/><path d="M132.024 75.527a2.994 2.994 0 1 1 0.078 5.986 2.994 2.994 0 0 1 -0.078 -5.986m0 -3.941a6.932 6.932 0 1 0 0 13.869 6.932 6.932 0 0 0 0 -13.866" fill="white"/><path d="M82.46 83.484a4.925 4.925 0 1 0 0 -9.849 4.925 4.925 0 0 0 0 9.849" fill="#07A689"/><path d="M82.461 75.527a2.994 2.994 0 1 1 0.076 5.986 2.994 2.994 0 0 1 -0.076 -5.986m0 -3.941a6.932 6.932 0 1 0 0 13.869 6.932 6.932 0 0 0 0 -13.866" fill="white"/><path d="M51.848 144.67a4.925 4.925 0 1 0 0 -9.85 4.925 4.925 0 0 0 0 9.85" fill="white"/><path d="M51.848 136.791a2.954 2.954 0 1 1 0 5.908 2.954 2.954 0 0 1 0 -5.908m0 -3.941a6.894 6.894 0 1 0 0 13.792 6.894 6.894 0 0 0 0 -13.791" fill="white"/><path d="M113.389 144.67a4.925 4.925 0 1 0 0 -9.85 4.925 4.925 0 0 0 0 9.85" fill="white"/><path d="M113.507 136.791a2.954 2.954 0 1 1 0 5.908 2.954 2.954 0 0 1 0 -5.908m0 -3.941a6.894 6.894 0 1 0 0 13.792 6.894 6.894 0 0 0 0 -13.791" fill="white"/><text x="168" y="130" font-family="Arial" font-size="100" font-weight="bold" fill="#000000">Grid</text><text x="365" y="130" font-family="Arial" font-size="100" fill="#07A689">Suite</text></svg>
 
